<svg width="16" height="16" viewBox="0 0 16 16" fill="none" xmlns="http://www.w3.org/2000/svg">
<path d="M4.66797 14C4.3013 14 3.9873 13.8693 3.72597 13.608C3.46464 13.3467 3.33419 13.0329 3.33464 12.6667V4C3.14575 4 2.9873 3.936 2.8593 3.808C2.7313 3.68 2.66753 3.52178 2.66797 3.33334C2.66797 3.14445 2.73197 2.986 2.85997 2.858C2.98797 2.73 3.14619 2.66622 3.33464 2.66667H6.0013C6.0013 2.47778 6.0653 2.31934 6.1933 2.19134C6.3213 2.06334 6.47953 1.99956 6.66797 2H9.33464C9.52353 2 9.68197 2.064 9.80997 2.192C9.93797 2.32 10.0017 2.47822 10.0013 2.66667H12.668C12.8569 2.66667 13.0153 2.73067 13.1433 2.85867C13.2713 2.98667 13.3351 3.14489 13.3346 3.33334C13.3346 3.52222 13.2706 3.68067 13.1426 3.80867C13.0146 3.93667 12.8564 4.00045 12.668 4V12.6667C12.668 13.0333 12.5373 13.3473 12.276 13.6087C12.0146 13.87 11.7009 14.0004 11.3346 14H4.66797ZM4.66797 4V12.6667H11.3346V4H4.66797ZM6.0013 10.6667C6.0013 10.8556 6.0653 11.014 6.1933 11.142C6.3213 11.27 6.47953 11.3338 6.66797 11.3333C6.85686 11.3333 7.0153 11.2693 7.1433 11.1413C7.2713 11.0133 7.33508 10.8551 7.33464 10.6667V6C7.33464 5.81111 7.27064 5.65267 7.14264 5.52467C7.01464 5.39667 6.85642 5.33289 6.66797 5.33334C6.47908 5.33334 6.32064 5.39734 6.19264 5.52534C6.06464 5.65334 6.00086 5.81156 6.0013 6V10.6667ZM8.66797 10.6667C8.66797 10.8556 8.73197 11.014 8.85997 11.142C8.98797 11.27 9.14619 11.3338 9.33464 11.3333C9.52353 11.3333 9.68197 11.2693 9.80997 11.1413C9.93797 11.0133 10.0017 10.8551 10.0013 10.6667V6C10.0013 5.81111 9.9373 5.65267 9.8093 5.52467C9.6813 5.39667 9.52308 5.33289 9.33464 5.33334C9.14575 5.33334 8.9873 5.39734 8.8593 5.52534C8.7313 5.65334 8.66753 5.81156 8.66797 6V10.6667Z" fill="black"/>
</svg>
