<svg width="14" height="19" viewBox="0 0 14 19" fill="none" xmlns="http://www.w3.org/2000/svg">
<path d="M13.6825 13.8485L12.5 12.666V8.08268C12.5 5.26852 10.9967 2.91268 8.37505 2.28935V1.66602C8.37505 0.905182 7.76088 0.291016 7.00005 0.291016C6.23921 0.291016 5.62505 0.905182 5.62505 1.66602V2.28935C2.99421 2.91268 1.50005 5.25935 1.50005 8.08268V12.666L0.317547 13.8485C-0.259953 14.426 0.14338 15.416 0.959214 15.416H13.0317C13.8567 15.416 14.26 14.426 13.6825 13.8485ZM10.6667 13.5827H3.33338V8.08268C3.33338 5.80935 4.71755 3.95768 7.00005 3.95768C9.28255 3.95768 10.6667 5.80935 10.6667 8.08268V13.5827ZM7.00005 18.166C8.00838 18.166 8.83338 17.341 8.83338 16.3327H5.16671C5.16671 16.8189 5.35987 17.2852 5.70369 17.629C6.0475 17.9729 6.51382 18.166 7.00005 18.166Z" fill="white"/>
</svg>
