<svg width="16" height="20" viewBox="0 0 16 20" fill="none" xmlns="http://www.w3.org/2000/svg">
<path d="M10.6033 13.9057C13.3716 14.4282 15.3333 15.7665 15.3333 17.334V19.1673H0.666626V17.334C0.666626 15.7665 2.62829 14.4282 5.39663 13.9057L7.99996 18.2507L10.6033 13.9057ZM4.33329 6.334H11.6666V8.16733C11.6666 9.13979 11.2803 10.0724 10.5927 10.7601C9.90505 11.4477 8.97242 11.834 7.99996 11.834C7.0275 11.834 6.09487 11.4477 5.40723 10.7601C4.7196 10.0724 4.33329 9.13979 4.33329 8.16733V6.334ZM4.33329 5.41733L4.70913 1.659C4.73193 1.4321 4.83848 1.22185 5.00798 1.0693C5.17748 0.916748 5.39776 0.832853 5.62579 0.833996H10.3833C10.8508 0.833996 11.245 1.1915 11.2908 1.659L11.6666 5.41733H4.33329ZM7.99996 1.75066H7.08329V2.66733H6.16663V3.584H7.08329V4.50066H7.99996V3.584H8.91663V2.66733H7.99996V1.75066Z" fill="white"/>
</svg>
