<svg width="16" height="18" viewBox="0 0 16 18" fill="none" xmlns="http://www.w3.org/2000/svg">
<path d="M8 9C9.21242 9 10.3752 8.52589 11.2325 7.68198C12.0898 6.83807 12.5714 5.69347 12.5714 4.5C12.5714 3.30653 12.0898 2.16193 11.2325 1.31802C10.3752 0.474106 9.21242 0 8 0C6.78758 0 5.62482 0.474106 4.76751 1.31802C3.9102 2.16193 3.42857 3.30653 3.42857 4.5C3.42857 5.69347 3.9102 6.83807 4.76751 7.68198C5.62482 8.52589 6.78758 9 8 9ZM4.57143 10.9406C1.92857 11.7035 0 14.1082 0 16.9559C0 17.5324 0.475 18 1.06071 18H14.9393C15.525 18 16 17.5324 16 16.9559C16 14.1082 14.0714 11.7035 11.4286 10.9406V12.7266C12.4143 12.9762 13.1429 13.8586 13.1429 14.9062V16.3125C13.1429 16.6219 12.8857 16.875 12.5714 16.875H12C11.6857 16.875 11.4286 16.6219 11.4286 16.3125C11.4286 16.0031 11.6857 15.75 12 15.75V14.9062C12 14.284 11.4893 13.7812 10.8571 13.7812C10.225 13.7812 9.71429 14.284 9.71429 14.9062V15.75C10.0286 15.75 10.2857 16.0031 10.2857 16.3125C10.2857 16.6219 10.0286 16.875 9.71429 16.875H9.14286C8.82857 16.875 8.57143 16.6219 8.57143 16.3125V14.9062C8.57143 13.8586 9.3 12.9762 10.2857 12.7266V10.7191C10.0714 10.698 9.85357 10.6875 9.63214 10.6875H6.36786C6.14643 10.6875 5.92857 10.698 5.71429 10.7191V13.0184C6.53929 13.2609 7.14286 14.0133 7.14286 14.9062C7.14286 15.9926 6.24643 16.875 5.14286 16.875C4.03929 16.875 3.14286 15.9926 3.14286 14.9062C3.14286 14.0133 3.74643 13.2609 4.57143 13.0184V10.9406ZM5.14286 15.75C5.37019 15.75 5.5882 15.6611 5.74895 15.5029C5.90969 15.3446 6 15.13 6 14.9062C6 14.6825 5.90969 14.4679 5.74895 14.3096C5.5882 14.1514 5.37019 14.0625 5.14286 14.0625C4.91553 14.0625 4.69751 14.1514 4.53677 14.3096C4.37602 14.4679 4.28571 14.6825 4.28571 14.9062C4.28571 15.13 4.37602 15.3446 4.53677 15.5029C4.69751 15.6611 4.91553 15.75 5.14286 15.75Z" fill="white"/>
</svg>
