<svg width="12" height="12" viewBox="0 0 12 12" fill="none" xmlns="http://www.w3.org/2000/svg">
<path d="M8.475 10.325L9.05 9.75L8.25 8.95L7.675 9.525C7.55833 9.64167 7.5 9.775 7.5 9.925C7.5 10.075 7.55833 10.2083 7.675 10.325C7.79167 10.4417 7.925 10.5 8.075 10.5C8.225 10.5 8.35833 10.4417 8.475 10.325ZM9.75 9.05L10.325 8.475C10.4417 8.35833 10.5 8.225 10.5 8.075C10.5 7.925 10.4417 7.79167 10.325 7.675C10.2083 7.55833 10.075 7.5 9.925 7.5C9.775 7.5 9.64167 7.55833 9.525 7.675L8.95 8.25L9.75 9.05ZM9.1875 11.0375C8.87917 11.3458 8.50833 11.5 8.075 11.5C7.64167 11.5 7.27083 11.3458 6.9625 11.0375C6.65417 10.7292 6.5 10.3583 6.5 9.925C6.5 9.49167 6.65417 9.12083 6.9625 8.8125L8.8125 6.9625C9.12083 6.65417 9.49167 6.5 9.925 6.5C10.3583 6.5 10.7292 6.65417 11.0375 6.9625C11.3458 7.27083 11.5 7.64167 11.5 8.075C11.5 8.50833 11.3458 8.87917 11.0375 9.1875L9.1875 11.0375ZM2.5 10.5C2.225 10.5 1.9895 10.402 1.7935 10.206C1.5975 10.01 1.49967 9.77467 1.5 9.5V2.5C1.5 2.225 1.598 1.9895 1.794 1.7935C1.99 1.5975 2.22533 1.49967 2.5 1.5H4.6C4.70833 1.2 4.88967 0.958333 5.144 0.775C5.39833 0.591667 5.68367 0.5 6 0.5C6.31667 0.5 6.60217 0.591667 6.8565 0.775C7.11083 0.958333 7.292 1.2 7.4 1.5H9.5C9.775 1.5 10.0105 1.598 10.2065 1.794C10.4025 1.99 10.5003 2.22533 10.5 2.5V5.5625C10.3333 5.52083 10.1667 5.5 10 5.5C9.83333 5.5 9.66667 5.5125 9.5 5.5375V2.5H2.5V9.5H5.5375C5.5125 9.66667 5.5 9.83333 5.5 10C5.5 10.1667 5.52083 10.3333 5.5625 10.5H2.5ZM6 2.125C6.10833 2.125 6.19783 2.0895 6.2685 2.0185C6.33917 1.9475 6.37467 1.858 6.375 1.75C6.375 1.64167 6.3395 1.55217 6.2685 1.4815C6.1975 1.41083 6.108 1.37533 6 1.375C5.89167 1.375 5.80217 1.4105 5.7315 1.4815C5.66083 1.5525 5.62533 1.642 5.625 1.75C5.625 1.85833 5.6605 1.94783 5.7315 2.0185C5.8025 2.08917 5.892 2.12467 6 2.125ZM3.5 4.5V3.5H8.5V4.5H3.5ZM3.5 6.5V5.5H8.5V5.925C8.43333 5.96667 8.36867 6.01467 8.306 6.069C8.24333 6.12333 8.17883 6.18367 8.1125 6.25L7.8625 6.5H3.5ZM3.5 8.5V7.5H6.8625L6.25 8.1125C6.18333 8.17917 6.123 8.24383 6.069 8.3065C6.015 8.36917 5.967 8.43367 5.925 8.5H3.5Z" fill="black"/>
</svg>
