<svg width="16" height="16" viewBox="0 0 16 16" fill="none" xmlns="http://www.w3.org/2000/svg">
<circle cx="8" cy="8" r="8" fill="#009EE0"/>
<g clip-path="url(#clip0_210_35486)">
<path d="M8 5.25C8.91937 5.24694 9.82094 5.50339 10.6011 5.98986C11.3812 6.47633 12.0082 7.17308 12.41 8C11.585 9.685 9.9 10.75 8 10.75C6.1 10.75 4.415 9.685 3.59 8C3.99181 7.17308 4.61882 6.47633 5.39894 5.98986C6.17906 5.50339 7.08063 5.24694 8 5.25ZM8 4.25C5.5 4.25 3.365 5.805 2.5 8C3.365 10.195 5.5 11.75 8 11.75C10.5 11.75 12.635 10.195 13.5 8C12.635 5.805 10.5 4.25 8 4.25ZM8 6.75C8.33152 6.75 8.64946 6.8817 8.88388 7.11612C9.1183 7.35054 9.25 7.66848 9.25 8C9.25 8.33152 9.1183 8.64946 8.88388 8.88388C8.64946 9.1183 8.33152 9.25 8 9.25C7.66848 9.25 7.35054 9.1183 7.11612 8.88388C6.8817 8.64946 6.75 8.33152 6.75 8C6.75 7.66848 6.8817 7.35054 7.11612 7.11612C7.35054 6.8817 7.66848 6.75 8 6.75ZM8 5.75C6.76 5.75 5.75 6.76 5.75 8C5.75 9.24 6.76 10.25 8 10.25C9.24 10.25 10.25 9.24 10.25 8C10.25 6.76 9.24 5.75 8 5.75Z" fill="white"/>
<circle cx="8" cy="8" r="8" fill="#009EE0"/>
<path d="M8 4.25C5.5 4.25 3.365 5.805 2.5 8C3.365 10.195 5.5 11.75 8 11.75C10.5 11.75 12.635 10.195 13.5 8C12.635 5.805 10.5 4.25 8 4.25ZM8 10.5C6.62 10.5 5.5 9.38 5.5 8C5.5 6.62 6.62 5.5 8 5.5C9.38 5.5 10.5 6.62 10.5 8C10.5 9.38 9.38 10.5 8 10.5ZM8 6.5C7.17 6.5 6.5 7.17 6.5 8C6.5 8.83 7.17 9.5 8 9.5C8.83 9.5 9.5 8.83 9.5 8C9.5 7.17 8.83 6.5 8 6.5Z" fill="white"/>
</g>
<defs>
<clipPath id="clip0_210_35486">
<rect width="12" height="12" fill="white" transform="translate(2 2)"/>
</clipPath>
</defs>
</svg>
